<svg xmlns="http://www.w3.org/2000/svg" viewBox="0 0 24 24" fill="#3A76F0">
  <path d="M12.011 0C5.408 0 .034 5.372.034 11.976c0 2.104.544 4.08 1.5 5.8L.017 24l6.464-1.694a11.93 11.93 0 005.53 1.37c6.603 0 11.977-5.373 11.977-11.977C23.988 5.096 18.614 0 12.011 0zm6.545 16.898c-.278.782-1.371 1.44-2.241 1.626-.594.126-1.369.228-3.976-.854-3.351-1.388-5.509-4.787-5.675-5.008-.163-.218-1.337-1.78-1.337-3.396 0-1.615.846-2.41 1.147-2.74.301-.329.658-.411.878-.411.22 0 .439.001.631.012.202.01.472-.077.739.563.276.66.944 2.303.1027 2.506.057.203.095.44-.02.707-.115.267-.173.434-.34.659-.168.226-.353.504-.504.677-.168.191-.343.396-.147.776.196.381.87 1.435 1.869 2.325 1.285 1.145 2.367 1.499 2.703 1.668.336.168.53.141.724-.084.195-.225.837-.977 1.06-1.313.223-.336.447-.28.753-.168.306.112 1.94.915 2.272 1.081.332.166.554.249.636.388.081.139.081.793-.197 1.575z"/>
</svg>
