<svg xmlns="http://www.w3.org/2000/svg" viewBox="0 0 24 24">
  <defs>
    <linearGradient id="ticketGrad" x1="0%" y1="0%" x2="100%" y2="100%">
      <stop offset="0%" style="stop-color:#F59E0B"/>
      <stop offset="100%" style="stop-color:#D97706"/>
    </linearGradient>
  </defs>
  <path d="M2 9a3 3 0 0 1 3-3h14a3 3 0 0 1 3 3v1a2 2 0 0 0 0 4v1a3 3 0 0 1-3 3H5a3 3 0 0 1-3-3v-1a2 2 0 0 0 0-4V9z" fill="url(#ticketGrad)"/>
  <line x1="10" y1="7" x2="10" y2="18" stroke="#92400E" stroke-width="1.6" stroke-dasharray="2 2"/>
  <circle cx="6" cy="10" r="1.5" fill="white"/>
  <circle cx="6" cy="14" r="1.5" fill="white"/>
  <rect x="13" y="9" width="6" height="2" rx="1" fill="white"/>
  <rect x="13" y="13" width="4" height="2" rx="1" fill="white" opacity="0.7"/>
</svg>
